<svg width="24" height="24" viewBox="0 0 24 24" fill="none" xmlns="http://www.w3.org/2000/svg">
  <rect width="24" height="24" rx="6" fill="#0EA5E9"/>
  <path d="M7 9.25C7 8.45 7.45 8 8.25 8H15.75C16.55 8 17 8.45 17 9.25V11.25C17 12.05 16.55 12.5 15.75 12.5H8.25C7.45 12.5 7 12.05 7 11.25V9.25Z" fill="white"/>
  <path d="M7 15.25C7 14.45 7.45 14 8.25 14H13.75C14.55 14 15 14.45 15 15.25V17.25C15 18.05 14.55 18.5 13.75 18.5H8.25C7.45 18.5 7 18.05 7 17.25V15.25Z" fill="white"/>
  <circle cx="18.5" cy="6.5" r="2.5" fill="#FFB347"/>
</svg>